<?xml version="1.0" encoding="UTF-8" standalone="no"?>
<!-- Created with Inkscape (http://www.inkscape.org/) -->

<svg
   width="659.09003"
   height="109.13827"
   viewBox="0 0 174.38422 28.876163"
   version="1.1"
   id="svg1"
   xml:space="preserve"
   xmlns="http://www.w3.org/2000/svg"
   xmlns:svg="http://www.w3.org/2000/svg"><defs
     id="defs1"><linearGradient
       id="swatch13"><stop
         style="stop-color:#000000;stop-opacity:1;"
         offset="0"
         id="stop13" /></linearGradient></defs><g
     id="g155"
     style="display:inline"
     transform="matrix(1.0837118,0,0,1.0837118,-41.026391,-79.789603)"><g
       id="g138"
       style="display:inline"><path
         style="opacity:1;fill:none;fill-opacity:1;stroke:#33ff33;stroke-width:1.85208;stroke-linecap:round;stroke-linejoin:round;stroke-dasharray:none;stroke-opacity:1;paint-order:normal"
         d="m 157.02014,95.904594 -0.006,-18.309569 z"
         id="path136" /><path
         style="fill:none;fill-opacity:1;stroke:#33ff33;stroke-width:1.85208;stroke-linecap:round;stroke-linejoin:round;stroke-dasharray:none;stroke-opacity:1;paint-order:normal"
         d="m 167.69808,95.904591 -0.006,-18.309569 z"
         id="path137" /><path
         style="opacity:1;fill:none;fill-opacity:1;stroke:#33ff33;stroke-width:1.85208;stroke-linecap:round;stroke-linejoin:round;stroke-dasharray:none;stroke-opacity:1;paint-order:normal"
         d="m 157.27421,86.201101 h 10.16344 z"
         id="path138" /></g><g
       id="g140"
       style="display:inline;opacity:1"
       transform="translate(-0.968113)"><path
         style="opacity:1;fill:none;fill-opacity:1;stroke:#33ff33;stroke-width:1.852;stroke-linecap:round;stroke-linejoin:round;stroke-dasharray:none;stroke-dashoffset:0;stroke-opacity:1"
         d="m 174.66633,82.897262 c 0,0 2.96246,-1.231591 5.54661,-0.460528 2.0415,0.609146 2.60586,2.198936 2.60586,4.214304 v 6.978385 c 0,1.736117 1.4865,2.275168 1.4865,2.275168"
         id="path139" /><path
         style="opacity:1;fill:none;fill-opacity:1;stroke:#33ff33;stroke-width:1.852;stroke-linecap:square;stroke-linejoin:round;stroke-dasharray:none;stroke-dashoffset:0;stroke-opacity:1"
         d="m 181.74529,88.174398 c 0,0 -2.84977,-0.193493 -4.50754,0.196431 -1.71344,0.40302 -3.40651,1.725125 -3.40651,4.034896 0,1.640811 1.39542,3.498866 3.71439,3.498866 2.95238,0 4.54714,-2.12482 4.54714,-2.12482"
         id="path140" /></g><g
       id="g142"
       style="display:inline"
       transform="translate(5.6116847,-0.30575)"><path
         style="opacity:1;fill:none;fill-opacity:1;stroke:#33ff33;stroke-width:1.85208;stroke-linecap:round;stroke-linejoin:round;stroke-opacity:1"
         d="m 181.85931,96.210341 9.7735,-13.778708 z"
         id="path141" /><path
         style="opacity:1;fill:none;fill-opacity:1;stroke:#33ff33;stroke-width:1.85208;stroke-linecap:round;stroke-linejoin:round;stroke-opacity:1"
         d="m 182.56089,82.431633 9.67996,13.778708 z"
         id="path142" /></g><g
       id="g144"
       style="display:inline"
       transform="translate(-118.24972)"><path
         style="opacity:1;fill:none;fill-opacity:1;stroke:#33ff33;stroke-width:1.85208;stroke-linecap:round;stroke-linejoin:round;stroke-dasharray:none;stroke-opacity:1;paint-order:normal"
         d="m 157.03905,95.904594 -0.006,-18.309569 z"
         id="path143" /><path
         style="opacity:1;fill:none;fill-opacity:1;stroke:#33ff33;stroke-width:1.85208;stroke-linecap:round;stroke-linejoin:round;stroke-dasharray:none;stroke-opacity:1;paint-order:normal"
         d="m 157.03905,95.904594 h 9.80141 z"
         id="path144" /></g><g
       id="g147"
       style="display:inline"
       transform="translate(-104.13885)"><path
         style="opacity:1;fill:none;fill-opacity:1;stroke:#33ff33;stroke-width:1.85208;stroke-linecap:round;stroke-linejoin:round;stroke-dasharray:none;stroke-opacity:1;paint-order:normal"
         d="m 162.39367,95.904594 -0.006,-13.778711 z"
         id="path145" /><path
         style="opacity:1;fill:none;fill-opacity:1;stroke:#33ff33;stroke-width:1.85208;stroke-linecap:round;stroke-linejoin:round;stroke-dasharray:none;stroke-opacity:1;paint-order:normal"
         d="m 157.32829,95.904594 h 9.75042 z"
         id="path146" /><path
         style="opacity:1;fill:none;fill-opacity:1;stroke:#33ff33;stroke-width:1.852;stroke-linecap:square;stroke-linejoin:round;stroke-dasharray:none;stroke-dashoffset:0;stroke-opacity:1"
         d="M 38.4508,82.125882 H 33.531671 Z"
         id="path147"
         transform="translate(123.93687)" /><circle
         style="display:inline;fill:#33ff33;fill-opacity:1;stroke:none;stroke-width:1.852;stroke-linecap:square;stroke-linejoin:round;stroke-dasharray:none;stroke-dashoffset:0;stroke-opacity:1"
         id="circle147"
         cx="161.73312"
         cy="77.582626"
         r="1.5875" /></g><g
       id="g149"
       style="display:inline"
       transform="translate(-85.886008,-0.01240234)"><path
         style="opacity:1;fill:none;fill-opacity:1;stroke:#33ff33;stroke-width:1.85208;stroke-linecap:round;stroke-linejoin:round;stroke-dasharray:none;stroke-opacity:1;paint-order:normal"
         d="m 157.03905,95.904594 -0.006,-17.654759 z"
         id="path148" /><path
         style="opacity:1;fill:none;fill-opacity:1;stroke:#33ff33;stroke-width:1.85208;stroke-linecap:round;stroke-linejoin:round;stroke-dasharray:none;stroke-opacity:1;paint-order:normal"
         d="m 150.41035,77.595025 h 13.24539 z"
         id="path149" /></g><g
       id="g152"
       style="display:inline"
       transform="translate(-74.910323)"><path
         style="opacity:1;fill:none;fill-opacity:1;stroke:#33ff33;stroke-width:1.85208;stroke-linecap:round;stroke-linejoin:round;stroke-dasharray:none;stroke-opacity:1;paint-order:normal"
         d="m 157.02014,95.904594 -0.006,-18.309569 z"
         id="path150" /><path
         style="fill:none;fill-opacity:1;stroke:#33ff33;stroke-width:1.85208;stroke-linecap:round;stroke-linejoin:round;stroke-dasharray:none;stroke-opacity:1;paint-order:normal"
         d="m 167.69808,95.904591 -0.006,-18.309569 z"
         id="path151" /><path
         style="opacity:1;fill:none;fill-opacity:1;stroke:#33ff33;stroke-width:1.85208;stroke-linecap:round;stroke-linejoin:round;stroke-dasharray:none;stroke-opacity:1;paint-order:normal"
         d="m 157.3973,86.201101 h 9.76843 z"
         id="path152" /></g><g
       id="g154"
       transform="translate(15.307892)"><path
         style="opacity:1;fill:none;fill-opacity:1;stroke:#33ff33;stroke-width:1.852;stroke-linecap:square;stroke-linejoin:round;stroke-dasharray:none;stroke-dashoffset:0;stroke-opacity:1"
         d="m 83.149851,88.94153 h 10.22326 z"
         id="path153" /><path
         style="opacity:1;fill:none;fill-opacity:1;stroke:#33ff33;stroke-width:1.852;stroke-linecap:round;stroke-linejoin:round;stroke-dasharray:none;stroke-dashoffset:0;stroke-opacity:1"
         d="m 93.373111,88.94153 c 0,0 0.171553,-6.81565 -5.18419,-6.81565 -4.443499,0 -5.369801,4.5774 -5.369801,6.815648 0,2.139913 0.51962,6.963061 5.40367,6.963061 2.442796,0 4.153413,-1.333862 4.153413,-1.333862"
         id="path154" /></g></g><g
     id="g161"
     style="display:inline"
     transform="matrix(1.0837118,0,0,1.0837118,-41.026391,-79.789603)"><circle
       style="fill:#33ff33;fill-opacity:1;stroke:none;stroke-width:1.05833"
       id="circle155"
       cx="132.77849"
       cy="97.362335"
       r="2.1166666" /><path
       d="m 127.25204,86.779716 c 0.77393,0.0087 1.57011,0.185664 2.22674,0.576192 0.78807,0.468703 1.49851,1.210024 1.80764,2.073259 0.29436,0.821992 0.25445,1.723385 -0.0744,2.618444 -0.34399,0.936123 -0.88711,1.771019 -1.53996,2.566769 -0.63239,0.770809 -1.34272,1.478582 -2.08049,2.149223 -0.95033,0.863863 -1.96878,1.65569 -3.01067,2.403987 -0.4617,0.3316 -0.97261,0.682313 -1.4087,0.96067 -0.34183,0.21819 -0.74239,0.16064 -0.98185,0.007 -0.35902,-0.230821 -0.55691,-0.355422 -1.03818,-0.751372 -0.74198,-0.610439 -1.41091,-1.264339 -2.23346,-2.150773 -0.58974,-0.635549 -1.20422,-1.340244 -1.70377,-1.952853 -0.7193,-0.882086 -0.78027,-0.950183 -0.85835,-1.094507 -0.15025,-0.27775 -0.14999,-0.655039 0.0641,-0.959631 0.0327,-0.04653 0.11703,-0.150903 0.58033,-0.601514 0.55323,-0.538066 0.87129,-0.824046 1.31103,-1.211295 1.03951,-0.915432 2.12962,-1.775094 3.29024,-2.531112 0.80936,-0.527209 1.70932,-1.037985 2.54506,-1.391646 0.87881,-0.371887 1.82696,-0.656661 2.77451,-0.70435 0.10918,-0.0055 0.21965,-0.0074 0.33021,-0.0062 z m -1.10897,3.814754 a 1.190625,1.190625 0 0 0 -1.19063,1.190625 1.190625,1.190625 0 0 0 1.19063,1.190625 1.190625,1.190625 0 0 0 1.19062,-1.190625 1.190625,1.190625 0 0 0 -1.19062,-1.190625 z"
       style="opacity:1;fill:#33ff33;fill-opacity:1;stroke:none;stroke-width:1.852;stroke-linecap:round;stroke-linejoin:round"
       id="path155" /><path
       d="m 138.30474,86.779716 c -0.77393,0.0087 -1.57011,0.185664 -2.22674,0.576192 -0.78807,0.468703 -1.49851,1.210024 -1.80764,2.073259 -0.29436,0.821992 -0.25445,1.723385 0.0744,2.618444 0.34399,0.936123 0.88711,1.771019 1.53996,2.566769 0.63239,0.770809 1.34272,1.478582 2.08049,2.149223 0.95033,0.863863 1.96878,1.65569 3.01067,2.403987 0.4617,0.3316 0.97261,0.682313 1.4087,0.96067 0.34183,0.21819 0.74239,0.16064 0.98185,0.007 0.35902,-0.230821 0.55691,-0.355422 1.03818,-0.751372 0.74198,-0.610439 1.41091,-1.264339 2.23346,-2.150773 0.58974,-0.635549 1.20422,-1.340244 1.70377,-1.952853 0.7193,-0.882086 0.78027,-0.950183 0.85835,-1.094507 0.15025,-0.27775 0.14999,-0.655039 -0.0641,-0.959631 -0.0327,-0.04653 -0.11703,-0.150903 -0.58033,-0.601514 -0.55323,-0.538066 -0.87129,-0.824046 -1.31103,-1.211295 -1.03951,-0.915432 -2.12962,-1.775094 -3.29024,-2.531112 -0.80936,-0.527209 -1.70932,-1.037985 -2.54506,-1.391646 -0.87881,-0.371887 -1.82696,-0.656661 -2.77451,-0.70435 -0.10918,-0.0055 -0.21965,-0.0074 -0.33021,-0.0062 z m 1.10897,3.814754 a 1.190625,1.190625 0 0 1 1.19063,1.190625 1.190625,1.190625 0 0 1 -1.19063,1.190625 1.190625,1.190625 0 0 1 -1.19062,-1.190625 1.190625,1.190625 0 0 1 1.19062,-1.190625 z"
       style="opacity:1;fill:#33ff33;fill-opacity:1;stroke:none;stroke-width:1.852;stroke-linecap:round;stroke-linejoin:round"
       id="path156" /><g
       id="g158"
       style="display:inline"
       transform="translate(0.88436123,0.27701576)"><path
         style="opacity:1;fill:none;stroke:#33ff33;stroke-width:1.85208;stroke-linecap:round;stroke-linejoin:round;stroke-dasharray:none;stroke-opacity:1;paint-order:normal"
         d="m 115.9409,83.194693 c 0,0 -1.05454,-8.2841 3.47113,-8.902967 2.44289,-0.334056 5.47064,4.915421 5.47064,4.915421"
         id="path157" /><path
         style="opacity:1;fill:#33ff33;fill-opacity:1;stroke:#33ff33;stroke-width:1.85208;stroke-linecap:round;stroke-linejoin:round;stroke-dasharray:none;stroke-opacity:1;paint-order:normal"
         d="m 119.73678,77.957508 c 0.54641,-0.194152 2.10184,2.607123 2.10184,2.607123 l -2.50149,1.115526 c 0,0 -0.30514,-3.472218 0.39965,-3.722649 z"
         id="path158" /></g><g
       id="g160"
       style="display:inline"
       transform="matrix(-1,0,0,1,264.67264,0.27701576)"><path
         style="opacity:1;fill:none;stroke:#33ff33;stroke-width:1.85208;stroke-linecap:round;stroke-linejoin:round;stroke-dasharray:none;stroke-opacity:1;paint-order:normal"
         d="m 115.9409,83.194693 c 0,0 -1.05454,-8.2841 3.47113,-8.902967 2.44289,-0.334056 5.47064,4.915421 5.47064,4.915421"
         id="path159" /><path
         style="opacity:1;fill:#33ff33;fill-opacity:1;stroke:#33ff33;stroke-width:1.85208;stroke-linecap:round;stroke-linejoin:round;stroke-dasharray:none;stroke-opacity:1;paint-order:normal"
         d="m 119.73678,77.957508 c 0.54641,-0.194152 2.10184,2.607123 2.10184,2.607123 l -2.50149,1.115526 c 0,0 -0.30514,-3.472218 0.39965,-3.722649 z"
         id="path160" /></g></g></svg>
