<?xml version="1.0" encoding="UTF-8"?>
<svg width="259px" height="56px" viewBox="0 0 259 56" version="1.1" xmlns="http://www.w3.org/2000/svg" xmlns:xlink="http://www.w3.org/1999/xlink">
    <!-- Generator: Sketch 57.1 (83088) - https://sketch.com -->
    <title>Group 3</title>
    <desc>Created with Sketch.</desc>
    <g id="Page-1" stroke="none" stroke-width="1" fill="none" fill-rule="evenodd">
        <g id="exportera" transform="translate(-721.000000, -847.000000)" fill-rule="nonzero">
            <g id="Group-3" transform="translate(721.000000, 847.000000)">
                <g id="logo-(temp)-color">
                    <path d="M63,8.73256577 C63,8.34681374 63.3008479,8 63.7146345,8 L79.2853654,8 C79.699152,8 80,8.34681374 80,8.73256577 L80,12.9372295 C80,13.3229815 79.699152,13.6697953 79.2853654,13.6697953 L68.8673392,13.6697953 L68.8673392,19.2240961 L77.4426316,19.2240961 C77.8187719,19.2240961 78.1569443,19.57124 78.1569443,19.9569919 L78.1569443,24.1613258 C78.1569443,24.5470778 77.8187719,24.8942215 77.4426316,24.8942215 L68.8673392,24.8942215 L68.8673392,34.2671042 C68.8673392,34.6531861 68.528845,35 68.1530264,35 L63.7146345,35 C63.3008479,35 63,34.6531861 63,34.2671042 L63,8.73256577" id="Fill-1" fill="#3B8C42"></path>
                    <path d="M100.980344,28.7778517 C105.2641,28.7778517 108.769264,25.2775191 108.769264,21.0389258 C108.769264,16.7610741 105.2641,13.2221483 100.980344,13.2221483 C96.7362335,13.2221483 93.2310694,16.7610741 93.2310694,21.0389258 C93.2310694,25.2775191 96.7362335,28.7778517 100.980344,28.7778517 M100.980344,7 C108.769264,7 115,13.2607415 115,21.0389258 C115,28.8167777 108.769264,35 100.980344,35 C93.1920898,35 87,28.8167777 87,21.0389258 C87,13.2607415 93.1920898,7 100.980344,7" id="Fill-2" fill="#3B8C42"></path>
                    <path d="M134.980677,28.7778517 C139.264433,28.7778517 142.769264,25.2775191 142.769264,21.0389258 C142.769264,16.7610741 139.264433,13.2221483 134.980677,13.2221483 C130.7359,13.2221483 127.231069,16.7610741 127.231069,21.0389258 C127.231069,25.2775191 130.7359,28.7778517 134.980677,28.7778517 M134.980677,7 C142.769264,7 149,13.2607415 149,21.0389258 C149,28.8167777 142.769264,35 134.980677,35 C127.191757,35 121,28.8167777 121,21.0389258 C121,13.2607415 127.191757,7 134.980677,7" id="Fill-3" fill="#3B8C42"></path>
                    <path d="M169.796729,8 C173.896152,8 176.928929,9.20269739 179.716935,11.6156442 C180.087077,11.9262309 180.087077,12.3925828 179.758725,12.7031695 L176.560777,15.8543496 C176.274216,16.1271746 175.823478,16.1271746 175.536916,15.8543496 C174.019533,14.5723534 172.010616,13.8728254 170.0017,13.8728254 C165.369949,13.8728254 161.968025,17.5262307 161.968025,21.881996 C161.968025,26.199056 165.411739,29.7759949 170.042495,29.7759949 C171.969821,29.7759949 174.060328,29.1151721 175.536916,27.9115306 C175.823478,27.6774108 176.355806,27.6774108 176.600577,27.9502364 L179.799521,31.178827 C180.087077,31.4497643 180.046282,31.9548214 179.758725,32.227647 C176.969725,34.7935266 173.44641,36 169.796729,36 C161.599872,36 155,29.8156443 155,22.0387053 C155,14.2598789 161.599872,8 169.796729,8" id="Fill-4" fill="#000000"></path>
                    <path d="M199.384615,26.3448276 L196.499539,19.5862069 L196.46176,19.5862069 L193.615385,26.3448276 L199.384615,26.3448276 L199.384615,26.3448276 Z M184.074182,34.973742 L195.684466,8.43175626 C195.795212,8.19625289 196.054519,8 196.313825,8 L196.683878,8 C196.944986,8 197.204292,8.19625289 197.315938,8.43175626 L208.925322,34.973742 C209.148614,35.486871 208.851492,36 208.295963,36 L204.177666,36 C203.510491,36 203.213369,35.7635397 202.879331,35.0149073 L201.544981,31.8987967 L191.456324,31.8987967 L190.119273,35.0551152 C189.934697,35.5270789 189.526829,36 188.784023,36 L184.705342,36 C184.148913,36 183.851791,35.486871 184.074182,34.973742 L184.074182,34.973742 Z" id="Fill-5" fill="#000000"></path>
                    <path d="M214,8.75833121 C214,8.36023122 214.319029,8 214.755035,8 L231.244965,8 C231.681938,8 232,8.36023122 232,8.75833121 L232,13.1209208 C232,13.5209624 231.681938,13.8802231 231.244965,13.8802231 L220.212364,13.8802231 L220.212364,19.6410165 L229.293088,19.6410165 C229.690423,19.6410165 230.047156,19.9983355 230.047156,20.4003188 L230.047156,24.7599957 C230.047156,25.1600373 229.690423,25.5212401 229.293088,25.5212401 L220.212364,25.5212401 L220.212364,35.2406977 C220.212364,35.6407393 219.851765,36 219.454428,36 L214.755035,36 C214.319029,36 214,35.6407393 214,35.2406977 L214,8.75833121" id="Fill-6" fill="#000000"></path>
                    <path d="M245.618204,6.16577521 L244.794585,4.62914616 C244.636344,4.33497398 244.832716,4.0790172 245.030041,3.93326388 L251.706693,0.124130915 C251.940243,-0.022510764 252.530312,-0.096276017 252.727638,0.234334844 L254.062206,2.39396928 C254.376782,2.94320942 254.13942,3.30848084 253.828656,3.49244956 L246.680139,6.49371959 C246.170143,6.78700341 245.814577,6.53282382 245.618204,6.16577521 M240,9.23085385 C240,8.85427278 240.318011,8.51351351 240.75878,8.51351351 L257.243153,8.51351351 C257.681022,8.51351351 258,8.85427278 258,9.23085385 L258,13.3576278 C258,13.7360456 257.681022,14.0758867 257.243153,14.0758867 L246.211363,14.0758867 L246.211363,18.7684504 L255.291591,18.7684504 C255.689829,18.7684504 256.05037,19.1073734 256.05037,19.4857912 L256.05037,23.6116466 C256.05037,24.0277223 255.689829,24.3308241 255.291591,24.3308241 L246.211363,24.3308241 L246.211363,29.4376268 L257.243153,29.4376268 C257.681022,29.4376268 258,29.777468 258,30.1577224 L258,34.2817411 C258,34.6601588 257.681022,35 257.243153,35 L240.75878,35 C240.318011,35 240,34.6601588 240,34.2817411 L240,9.23085385" id="Fill-7" fill="#000000"></path>
                    <path d="M28.3662769,9.28358939 L28.3662769,5.13172217 C28.3662769,2.40259778 26.1482166,0.181831592 23.4212554,0.181831592 C20.6953933,0.181831592 18.4767834,2.40259778 18.4767834,5.13172217 L18.4767834,9.28358939 C8.03717133,11.5679003 0.411901938,20.8776229 0.411901938,31.7800911 L0.411901938,31.8538141 C0.411901938,31.9616475 0.415474134,32.0595781 0.419870695,32.1572335 L0.420420261,32.1657611 C0.627607755,44.6551983 10.9460399,54.8163108 23.4212554,54.8163108 C36.1091541,54.8163108 46.431708,44.4821694 46.431708,31.7800911 C46.431708,20.8776229 38.8064386,11.5679003 28.3662769,9.28358939" id="Fill-9" fill="#3B8C42"></path>
                    <path d="M23.4212554,52.3413655 C12.0789763,52.3413655 2.88386315,43.1356253 2.88386315,31.7800911 C2.88386315,21.2630178 10.7732005,12.5967206 20.9492942,11.3731397 L20.9492942,5.13172217 C20.9492942,3.7639965 22.0564009,2.65677689 23.4212554,2.65677689 C24.7877587,2.65677689 25.8943157,3.7639965 25.8943157,5.13172217 L25.8943157,11.3731397 C36.0698599,12.5967206 43.9586476,21.2630178 43.9586476,31.7800911 C43.9586476,43.1356253 34.7635344,52.3413655 23.4212554,52.3413655" id="Fill-9-path" fill="#FDFDFD"></path>
                    <path d="M25.8943157,17.7515499 L25.8943157,24.1164809 C25.8943157,25.4833814 24.7877587,26.5914262 23.4212554,26.5914262 C22.0564009,26.5914262 20.9492942,25.4833814 20.9492942,24.1164809 L20.9492942,17.7515499 C14.2695582,18.92424 9.19044182,24.7563301 9.19044182,31.7800911 C9.19044182,39.6491903 15.5624192,46.0278755 23.4212554,46.0278755 C31.2822898,46.0278755 37.6531681,39.6491903 37.6531681,31.7800911 C37.6531681,24.7563301 32.5748761,18.9239648 25.8943157,17.7515499" id="Fill-8" fill="#1A1918"></path>
                    <path d="M21.3480065,27.6755387 C20.1254903,26.9592157 19.3005872,25.6338532 19.3005872,24.1162058 L19.3005872,19.875761 C14.2975862,21.5988974 10.8391487,26.3281693 10.8391487,31.779816 C10.8391487,32.7145569 10.9446659,33.6248153 11.1386637,34.5020632 C13.0283567,35.1196305 17.7007921,31.5721264 21.3480065,27.6755387" id="Fill-10" fill="#414140"></path>
                </g>
                <path d="M63.2578125,45.3203125 L64.5224609,45.3203125 L64.5224609,53.8515625 L69.7998047,53.8515625 L69.7998047,55 L63.2578125,55 L63.2578125,45.3203125 Z M76.3828125,48.765625 C76.6243502,49.0071627 76.8146152,49.3113588 76.9536133,49.6782227 C77.0926114,50.0450865 77.1621094,50.4313131 77.1621094,50.8369141 C77.1621094,51.242515 77.1165369,51.7187473 77.0253906,52.265625 L72.2675781,52.265625 C72.367839,52.81706 72.5911441,53.2511377 72.9375,53.5678711 C73.2838559,53.8846044 73.7737599,54.0429688 74.4072266,54.0429688 C75.2548871,54.0429688 76.0318975,53.8880224 76.7382812,53.578125 L76.9570312,54.5556641 C76.4876279,54.8291029 75.8177127,55.0091142 74.9472656,55.0957031 C74.705728,55.123047 74.391278,55.1367188 74.0039062,55.1367188 C73.6165345,55.1367188 73.2109396,55.0592456 72.7871094,54.9042969 C72.3632791,54.7493482 72.0123712,54.5214859 71.734375,54.2207031 C71.18294,53.6236949 70.9072266,52.7487037 70.9072266,51.5957031 C70.9072266,50.5839793 71.2376269,49.7363315 71.8984375,49.0527344 C72.5683627,48.3691372 73.4046174,48.0273438 74.4072266,48.0273438 C75.2321005,48.0273438 75.8906225,48.273435 76.3828125,48.765625 Z M75.9248047,51.2607422 L75.9521484,50.8916016 C75.9521484,50.057613 75.6399771,49.5039076 75.015625,49.2304688 C74.8059885,49.1393225 74.55534,49.09375 74.2636719,49.09375 C73.9720037,49.09375 73.7042655,49.1507156 73.4604492,49.2646484 C73.2166329,49.3785813 73.0058603,49.5335277 72.828125,49.7294922 C72.4635398,50.1305359 72.2584638,50.6409474 72.2128906,51.2607422 L75.9248047,51.2607422 Z M83.5400391,54.125 C82.7060505,54.7994825 81.8287806,55.1367188 80.9082031,55.1367188 C80.2656218,55.1367188 79.7255881,54.9681006 79.2880859,54.6308594 C78.8186825,54.2662742 78.5839844,53.790042 78.5839844,53.2021484 C78.5839844,51.9899028 79.3906169,51.1809916 81.0039062,50.7753906 C81.6556022,50.6113273 82.4371699,50.5201824 83.3486328,50.5019531 C83.3212889,49.7591109 82.9589879,49.3216152 82.2617188,49.1894531 C82.033853,49.14388 81.8196625,49.1210938 81.6191406,49.1210938 C81.4186188,49.1210938 81.2408862,49.1302082 81.0859375,49.1484375 C80.9309888,49.1666668 80.7714852,49.1917316 80.6074219,49.2236328 C80.247394,49.2919925 79.9420585,49.3763016 79.6914062,49.4765625 L79.3291016,48.5058594 C79.9671256,48.1868474 80.7373002,48.0273438 81.6396484,48.0273438 C83.0478586,48.0273438 83.9752582,48.4762325 84.421875,49.3740234 C84.5722664,49.6839208 84.6474609,50.0530578 84.6474609,50.4814453 L84.6474609,52.6621094 C84.6474609,53.1269554 84.6816403,53.4368482 84.75,53.5917969 C84.8730475,53.8880223 85.0895167,54.077148 85.3994141,54.1591797 L85.2080078,55 C84.35579,55.1002609 83.799806,54.8085972 83.5400391,54.125 Z M81.0791016,51.8486328 C80.6552713,52.0081388 80.3499358,52.1847321 80.1630859,52.378418 C79.976236,52.5721038 79.8828125,52.7805978 79.8828125,53.0039062 C79.8828125,53.2272147 79.9147132,53.3969721 79.9785156,53.5131836 C80.042318,53.6293951 80.1266271,53.7262366 80.2314453,53.8037109 C80.4456391,53.9632169 80.6962876,54.0429688 80.9833984,54.0429688 C81.2705092,54.0429688 81.529133,54.0122073 81.7592773,53.9506836 C81.9894217,53.8891598 82.202473,53.8082687 82.3984375,53.7080078 C82.7812519,53.5166006 83.0979805,53.2796238 83.3486328,52.9970703 L83.3486328,51.5205078 C82.263992,51.5751956 81.5074891,51.6845695 81.0791016,51.8486328 Z M91.2099609,49.5927734 C90.9319648,49.4287101 90.6482762,49.3466797 90.3588867,49.3466797 C90.0694973,49.3466797 89.8302418,49.4195956 89.6411133,49.5654297 C89.4519847,49.7112638 89.2867846,49.8958322 89.1455078,50.1191406 C88.8675116,50.5475282 88.6806645,51.0488253 88.5849609,51.6230469 L88.5849609,55 L87.2861328,55 L87.2861328,48.1640625 L88.359375,48.1640625 L88.578125,49.4150391 C88.9290382,48.7724577 89.377927,48.3463552 89.9248047,48.1367188 C90.1207692,48.0638017 90.2996411,48.0273438 90.4614258,48.0273438 C90.6232104,48.0273438 90.7428382,48.0307617 90.8203125,48.0375977 C90.8977868,48.0444336 90.9729814,48.0546874 91.0458984,48.0683594 C91.1917325,48.1048179 91.3444002,48.1595048 91.5039062,48.2324219 L91.2099609,49.5927734 Z M94.2861328,48.8408203 C95.0016312,48.2984999 95.8219355,48.0273438 96.7470703,48.0273438 C98.8252057,48.0273438 99.8642578,49.1689339 99.8642578,51.4521484 L99.8642578,55 L98.5654297,55 L98.5654297,51.5341797 C98.5654297,50.7457643 98.4287123,50.1601582 98.1552734,49.7773438 C97.8499334,49.3398416 97.3509149,49.1210938 96.6582031,49.1210938 C95.9153609,49.1210938 95.2932968,49.3033836 94.7919922,49.6679688 C94.6279289,49.7819016 94.4957687,49.9140617 94.3955078,50.0644531 L94.3955078,55 L93.0966797,55 L93.0966797,48.1640625 L94.0878906,48.1640625 L94.2861328,48.8408203 Z M107.951172,51.2333984 C107.951172,51.5524104 107.85433,51.8087555 107.660645,52.0024414 C107.466959,52.1961273 107.210614,52.2929688 106.891602,52.2929688 C106.57259,52.2929688 106.316244,52.1961273 106.122559,52.0024414 C105.928873,51.8087555 105.832031,51.5524104 105.832031,51.2333984 C105.832031,50.9143864 105.928873,50.6591806 106.122559,50.4677734 C106.316244,50.2763662 106.57259,50.1806641 106.891602,50.1806641 C107.210614,50.1806641 107.466959,50.2763662 107.660645,50.4677734 C107.85433,50.6591806 107.951172,50.9143864 107.951172,51.2333984 Z M121.889648,47.3300781 C121.133134,46.6555956 120.160162,46.3183594 118.970703,46.3183594 C117.89062,46.3183594 116.974613,46.6738246 116.222656,47.3847656 C115.461585,48.100264 115.081055,48.9912056 115.081055,50.0576172 C115.081055,51.1604873 115.472978,52.0947227 116.256836,52.8603516 C117.036137,53.6214231 117.981765,54.0019531 119.09375,54.0019531 C119.900395,54.0019531 120.704749,53.7968771 121.506836,53.3867188 C121.743816,53.2682286 121.948892,53.1383471 122.12207,52.9970703 L122.614258,53.9404297 C121.944333,54.5146513 121.080734,54.8860669 120.023438,55.0546875 C119.681639,55.1093753 119.330731,55.1367188 118.970703,55.1367188 C118.255205,55.1367188 117.580732,55.017091 116.947266,54.777832 C116.313799,54.538573 115.758954,54.2036154 115.282715,53.7729492 C114.806475,53.342283 114.430503,52.8284535 114.154785,52.2314453 C113.879068,51.6344371 113.741211,51.0328806 113.741211,50.4267578 C113.741211,49.820635 113.803873,49.2954124 113.929199,48.8510742 C114.054525,48.4067361 114.233397,47.9965839 114.46582,47.6206055 C114.698243,47.244627 114.976235,46.9062515 115.299805,46.6054688 C115.623374,46.304686 115.983396,46.0494802 116.379883,45.8398438 C117.209314,45.4023416 118.113927,45.1835938 119.09375,45.1835938 C120.419929,45.1835938 121.563797,45.5618452 122.525391,46.3183594 L121.889648,47.3300781 Z M128.185547,49.5927734 C127.907551,49.4287101 127.623862,49.3466797 127.334473,49.3466797 C127.045083,49.3466797 126.805828,49.4195956 126.616699,49.5654297 C126.427571,49.7112638 126.26237,49.8958322 126.121094,50.1191406 C125.843098,50.5475282 125.65625,51.0488253 125.560547,51.6230469 L125.560547,55 L124.261719,55 L124.261719,48.1640625 L125.334961,48.1640625 L125.553711,49.4150391 C125.904624,48.7724577 126.353513,48.3463552 126.900391,48.1367188 C127.096355,48.0638017 127.275227,48.0273438 127.437012,48.0273438 C127.598796,48.0273438 127.718424,48.0307617 127.795898,48.0375977 C127.873373,48.0444336 127.948567,48.0546874 128.021484,48.0683594 C128.167318,48.1048179 128.319986,48.1595048 128.479492,48.2324219 L128.185547,49.5927734 Z M134.939453,48.765625 C135.180991,49.0071627 135.371256,49.3113588 135.510254,49.6782227 C135.649252,50.0450865 135.71875,50.4313131 135.71875,50.8369141 C135.71875,51.242515 135.673178,51.7187473 135.582031,52.265625 L130.824219,52.265625 C130.92448,52.81706 131.147785,53.2511377 131.494141,53.5678711 C131.840497,53.8846044 132.3304,54.0429688 132.963867,54.0429688 C133.811528,54.0429688 134.588538,53.8880224 135.294922,53.578125 L135.513672,54.5556641 C135.044268,54.8291029 134.374353,55.0091142 133.503906,55.0957031 C133.262369,55.123047 132.947919,55.1367188 132.560547,55.1367188 C132.173175,55.1367188 131.76758,55.0592456 131.34375,54.9042969 C130.91992,54.7493482 130.569012,54.5214859 130.291016,54.2207031 C129.739581,53.6236949 129.463867,52.7487037 129.463867,51.5957031 C129.463867,50.5839793 129.794268,49.7363315 130.455078,49.0527344 C131.125003,48.3691372 131.961258,48.0273438 132.963867,48.0273438 C133.788741,48.0273438 134.447263,48.273435 134.939453,48.765625 Z M134.481445,51.2607422 L134.508789,50.8916016 C134.508789,50.057613 134.196618,49.5039076 133.572266,49.2304688 C133.362629,49.1393225 133.111981,49.09375 132.820312,49.09375 C132.528644,49.09375 132.260906,49.1507156 132.01709,49.2646484 C131.773274,49.3785813 131.562501,49.5335277 131.384766,49.7294922 C131.02018,50.1305359 130.815104,50.6409474 130.769531,51.2607422 L134.481445,51.2607422 Z M142.09668,54.125 C141.262691,54.7994825 140.385421,55.1367188 139.464844,55.1367188 C138.822262,55.1367188 138.282229,54.9681006 137.844727,54.6308594 C137.375323,54.2662742 137.140625,53.790042 137.140625,53.2021484 C137.140625,51.9899028 137.947258,51.1809916 139.560547,50.7753906 C140.212243,50.6113273 140.993811,50.5201824 141.905273,50.5019531 C141.87793,49.7591109 141.515628,49.3216152 140.818359,49.1894531 C140.590494,49.14388 140.376303,49.1210938 140.175781,49.1210938 C139.975259,49.1210938 139.797527,49.1302082 139.642578,49.1484375 C139.487629,49.1666668 139.328126,49.1917316 139.164062,49.2236328 C138.804035,49.2919925 138.498699,49.3763016 138.248047,49.4765625 L137.885742,48.5058594 C138.523766,48.1868474 139.293941,48.0273438 140.196289,48.0273438 C141.604499,48.0273438 142.531899,48.4762325 142.978516,49.3740234 C143.128907,49.6839208 143.204102,50.0530578 143.204102,50.4814453 L143.204102,52.6621094 C143.204102,53.1269554 143.238281,53.4368482 143.306641,53.5917969 C143.429688,53.8880223 143.646157,54.077148 143.956055,54.1591797 L143.764648,55 C142.912431,55.1002609 142.356447,54.8085972 142.09668,54.125 Z M139.635742,51.8486328 C139.211912,52.0081388 138.906576,52.1847321 138.719727,52.378418 C138.532877,52.5721038 138.439453,52.7805978 138.439453,53.0039062 C138.439453,53.2272147 138.471354,53.3969721 138.535156,53.5131836 C138.598959,53.6293951 138.683268,53.7262366 138.788086,53.8037109 C139.00228,53.9632169 139.252928,54.0429688 139.540039,54.0429688 C139.82715,54.0429688 140.085774,54.0122073 140.315918,53.9506836 C140.546062,53.8891598 140.759114,53.8082687 140.955078,53.7080078 C141.337893,53.5166006 141.654621,53.2796238 141.905273,52.9970703 L141.905273,51.5205078 C140.820633,51.5751956 140.06413,51.6845695 139.635742,51.8486328 Z M145.712891,49.2167969 L144.981445,49.2167969 L144.981445,48.3691406 L146.663086,47.1044922 L147.011719,47.1044922 L147.011719,48.1640625 L148.966797,48.1640625 L148.966797,49.2167969 L147.011719,49.2167969 L147.011719,51.9785156 C147.011719,52.7532591 147.1097,53.2818996 147.305664,53.5644531 C147.501629,53.8424493 147.884437,54.013346 148.454102,54.0771484 L148.255859,55 C146.888665,55.1731779 146.079754,54.6331443 145.829102,53.3798828 C145.751627,53.006183 145.712891,52.6028667 145.712891,52.1699219 L145.712891,49.2167969 Z M155.454102,48.765625 C155.695639,49.0071627 155.885904,49.3113588 156.024902,49.6782227 C156.1639,50.0450865 156.233398,50.4313131 156.233398,50.8369141 C156.233398,51.242515 156.187826,51.7187473 156.09668,52.265625 L151.338867,52.265625 C151.439128,52.81706 151.662433,53.2511377 152.008789,53.5678711 C152.355145,53.8846044 152.845049,54.0429688 153.478516,54.0429688 C154.326176,54.0429688 155.103187,53.8880224 155.80957,53.578125 L156.02832,54.5556641 C155.558917,54.8291029 154.889002,55.0091142 154.018555,55.0957031 C153.777017,55.123047 153.462567,55.1367188 153.075195,55.1367188 C152.687824,55.1367188 152.282229,55.0592456 151.858398,54.9042969 C151.434568,54.7493482 151.08366,54.5214859 150.805664,54.2207031 C150.254229,53.6236949 149.978516,52.7487037 149.978516,51.5957031 C149.978516,50.5839793 150.308916,49.7363315 150.969727,49.0527344 C151.639652,48.3691372 152.475906,48.0273438 153.478516,48.0273438 C154.30339,48.0273438 154.961912,48.273435 155.454102,48.765625 Z M154.996094,51.2607422 L155.023438,50.8916016 C155.023438,50.057613 154.711266,49.5039076 154.086914,49.2304688 C153.877278,49.1393225 153.626629,49.09375 153.334961,49.09375 C153.043293,49.09375 152.775555,49.1507156 152.531738,49.2646484 C152.287922,49.3785813 152.077149,49.5335277 151.899414,49.7294922 C151.534829,50.1305359 151.329753,50.6409474 151.28418,51.2607422 L154.996094,51.2607422 Z M163.862305,51.2333984 C163.862305,51.5524104 163.765463,51.8087555 163.571777,52.0024414 C163.378091,52.1961273 163.121746,52.2929688 162.802734,52.2929688 C162.483722,52.2929688 162.227377,52.1961273 162.033691,52.0024414 C161.840006,51.8087555 161.743164,51.5524104 161.743164,51.2333984 C161.743164,50.9143864 161.840006,50.6591806 162.033691,50.4677734 C162.227377,50.2763662 162.483722,50.1806641 162.802734,50.1806641 C163.121746,50.1806641 163.378091,50.2763662 163.571777,50.4677734 C163.765463,50.6591806 163.862305,50.9143864 163.862305,51.2333984 Z M170.240234,52.8193359 C171.087895,53.3662137 171.949214,53.7262361 172.824219,53.8994141 C173.120444,53.9586592 173.421222,53.9882812 173.726562,53.9882812 C174.031903,53.9882812 174.347492,53.9597985 174.67334,53.902832 C174.999188,53.8458656 175.287434,53.7513027 175.538086,53.6191406 C176.103193,53.3183579 176.385742,52.8557974 176.385742,52.2314453 C176.385742,51.588864 175.911789,51.1399752 174.963867,50.8847656 C174.685871,50.8118486 174.38965,50.7457685 174.075195,50.6865234 L173.097656,50.515625 C171.853509,50.3014312 170.985354,49.9869812 170.493164,49.5722656 C170.037433,49.1940085 169.80957,48.6835938 169.80957,48.0410156 C169.80957,47.1660112 170.228837,46.4573595 171.067383,45.9150391 C171.814782,45.4274064 172.69661,45.1835938 173.712891,45.1835938 C174.688156,45.1835938 175.565426,45.3430974 176.344727,45.6621094 C176.622723,45.7714849 176.912108,45.9082023 177.212891,46.0722656 L176.748047,47.1865234 C176.087236,46.7900371 175.307947,46.5325527 174.410156,46.4140625 C174.127603,46.3730467 173.854168,46.3525391 173.589844,46.3525391 C172.983721,46.3525391 172.448245,46.4687488 171.983398,46.7011719 C171.441078,46.9746107 171.169922,47.3528622 171.169922,47.8359375 C171.169922,48.3463567 171.513994,48.7200509 172.202148,48.9570312 C172.512046,49.0664068 172.862954,49.1552731 173.254883,49.2236328 L174.47168,49.4355469 C175.497075,49.6269541 176.208006,49.8434233 176.604492,50.0849609 C177.000979,50.3264986 177.293782,50.5965154 177.48291,50.8950195 C177.672039,51.1935236 177.766602,51.590004 177.766602,52.0844727 C177.766602,52.5789413 177.650392,53.0221335 177.417969,53.4140625 C177.185546,53.8059915 176.875653,54.129556 176.488281,54.3847656 C175.731767,54.8906275 174.76791,55.1435547 173.59668,55.1435547 C172.502924,55.1435547 171.475265,54.9065779 170.513672,54.4326172 C170.199217,54.2776685 169.907553,54.0999359 169.638672,53.8994141 L170.240234,52.8193359 Z M181.246094,48.7587891 C181.920576,48.2711564 182.704423,48.0273438 183.597656,48.0273438 C185.675792,48.0273438 186.714844,49.1689339 186.714844,51.4521484 L186.714844,55 L185.422852,55 L185.416016,51.5341797 C185.416016,50.7457643 185.279298,50.1601582 185.005859,49.7773438 C184.700519,49.3398416 184.201501,49.1210938 183.508789,49.1210938 C182.765947,49.1210938 182.143883,49.3033836 181.642578,49.6679688 C181.478515,49.7819016 181.346355,49.9140617 181.246094,50.0644531 L181.246094,55 L179.947266,55 L179.947266,44.3222656 L181.246094,44.3291016 L181.246094,48.7587891 Z M193.550781,54.125 C192.716793,54.7994825 191.839523,55.1367188 190.918945,55.1367188 C190.276364,55.1367188 189.73633,54.9681006 189.298828,54.6308594 C188.829425,54.2662742 188.594727,53.790042 188.594727,53.2021484 C188.594727,51.9899028 189.401359,51.1809916 191.014648,50.7753906 C191.666344,50.6113273 192.447912,50.5201824 193.359375,50.5019531 C193.332031,49.7591109 192.96973,49.3216152 192.272461,49.1894531 C192.044595,49.14388 191.830405,49.1210938 191.629883,49.1210938 C191.429361,49.1210938 191.251628,49.1302082 191.09668,49.1484375 C190.941731,49.1666668 190.782227,49.1917316 190.618164,49.2236328 C190.258136,49.2919925 189.952801,49.3763016 189.702148,49.4765625 L189.339844,48.5058594 C189.977868,48.1868474 190.748042,48.0273438 191.650391,48.0273438 C193.058601,48.0273438 193.986,48.4762325 194.432617,49.3740234 C194.583009,49.6839208 194.658203,50.0530578 194.658203,50.4814453 L194.658203,52.6621094 C194.658203,53.1269554 194.692382,53.4368482 194.760742,53.5917969 C194.88379,53.8880223 195.100259,54.077148 195.410156,54.1591797 L195.21875,55 C194.366532,55.1002609 193.810548,54.8085972 193.550781,54.125 Z M191.089844,51.8486328 C190.666014,52.0081388 190.360678,52.1847321 190.173828,52.378418 C189.986978,52.5721038 189.893555,52.7805978 189.893555,53.0039062 C189.893555,53.2272147 189.925455,53.3969721 189.989258,53.5131836 C190.05306,53.6293951 190.137369,53.7262366 190.242188,53.8037109 C190.456381,53.9632169 190.70703,54.0429688 190.994141,54.0429688 C191.281251,54.0429688 191.539875,54.0122073 191.77002,53.9506836 C192.000164,53.8891598 192.213215,53.8082687 192.40918,53.7080078 C192.791994,53.5166006 193.108723,53.2796238 193.359375,52.9970703 L193.359375,51.5205078 C192.274734,51.5751956 191.518231,51.6845695 191.089844,51.8486328 Z M201.220703,49.5927734 C200.942707,49.4287101 200.659018,49.3466797 200.369629,49.3466797 C200.080239,49.3466797 199.840984,49.4195956 199.651855,49.5654297 C199.462727,49.7112638 199.297527,49.8958322 199.15625,50.1191406 C198.878254,50.5475282 198.691407,51.0488253 198.595703,51.6230469 L198.595703,55 L197.296875,55 L197.296875,48.1640625 L198.370117,48.1640625 L198.588867,49.4150391 C198.93978,48.7724577 199.388669,48.3463552 199.935547,48.1367188 C200.131511,48.0638017 200.310383,48.0273438 200.472168,48.0273438 C200.633953,48.0273438 200.75358,48.0307617 200.831055,48.0375977 C200.908529,48.0444336 200.983724,48.0546874 201.056641,48.0683594 C201.202475,48.1048179 201.355142,48.1595048 201.514648,48.2324219 L201.220703,49.5927734 Z M207.974609,48.765625 C208.216147,49.0071627 208.406412,49.3113588 208.54541,49.6782227 C208.684408,50.0450865 208.753906,50.4313131 208.753906,50.8369141 C208.753906,51.242515 208.708334,51.7187473 208.617188,52.265625 L203.859375,52.265625 C203.959636,52.81706 204.182941,53.2511377 204.529297,53.5678711 C204.875653,53.8846044 205.365557,54.0429688 205.999023,54.0429688 C206.846684,54.0429688 207.623694,53.8880224 208.330078,53.578125 L208.548828,54.5556641 C208.079425,54.8291029 207.40951,55.0091142 206.539062,55.0957031 C206.297525,55.123047 205.983075,55.1367188 205.595703,55.1367188 C205.208331,55.1367188 204.802736,55.0592456 204.378906,54.9042969 C203.955076,54.7493482 203.604168,54.5214859 203.326172,54.2207031 C202.774737,53.6236949 202.499023,52.7487037 202.499023,51.5957031 C202.499023,50.5839793 202.829424,49.7363315 203.490234,49.0527344 C204.16016,48.3691372 204.996414,48.0273438 205.999023,48.0273438 C206.823897,48.0273438 207.482419,48.273435 207.974609,48.765625 Z M207.516602,51.2607422 L207.543945,50.8916016 C207.543945,50.057613 207.231774,49.5039076 206.607422,49.2304688 C206.397785,49.1393225 206.147137,49.09375 205.855469,49.09375 C205.563801,49.09375 205.296062,49.1507156 205.052246,49.2646484 C204.80843,49.3785813 204.597657,49.5335277 204.419922,49.7294922 C204.055337,50.1305359 203.850261,50.6409474 203.804688,51.2607422 L207.516602,51.2607422 Z M216.382812,51.2333984 C216.382812,51.5524104 216.285971,51.8087555 216.092285,52.0024414 C215.898599,52.1961273 215.642254,52.2929688 215.323242,52.2929688 C215.00423,52.2929688 214.747885,52.1961273 214.554199,52.0024414 C214.360513,51.8087555 214.263672,51.5524104 214.263672,51.2333984 C214.263672,50.9143864 214.360513,50.6591806 214.554199,50.4677734 C214.747885,50.2763662 215.00423,50.1806641 215.323242,50.1806641 C215.642254,50.1806641 215.898599,50.2763662 216.092285,50.4677734 C216.285971,50.6591806 216.382812,50.9143864 216.382812,51.2333984 Z M222.849609,52.8056641 C222.635416,52.4410789 222.469076,52.0457378 222.350586,51.6196289 C222.232096,51.19352 222.172852,50.7366561 222.172852,50.2490234 C222.172852,49.7613908 222.235514,49.2954124 222.36084,48.8510742 C222.486166,48.4067361 222.665038,47.9965839 222.897461,47.6206055 C223.129884,47.244627 223.407876,46.9062515 223.731445,46.6054688 C224.055015,46.304686 224.415037,46.0494802 224.811523,45.8398438 C225.640955,45.4023416 226.545568,45.1835938 227.525391,45.1835938 C228.965502,45.1835938 230.157222,45.5846314 231.100586,46.3867188 L230.389648,47.3574219 C229.592118,46.6647101 228.59636,46.3183594 227.402344,46.3183594 C226.32226,46.3183594 225.406254,46.6738246 224.654297,47.3847656 C223.893225,48.100264 223.512695,48.9912056 223.512695,50.0576172 C223.512695,51.2197324 223.888668,52.1676396 224.640625,52.9013672 C225.388025,53.6350948 226.342768,54.0019531 227.504883,54.0019531 C228.384445,54.0019531 229.170569,53.7444687 229.863281,53.2294922 C230.059246,53.0836581 230.225585,52.9309904 230.362305,52.7714844 L230.362305,51.7255859 L227.005859,51.7255859 L227.005859,50.5771484 L231.626953,50.5771484 L231.626953,55 L230.362305,55 L230.362305,54.0634766 C229.842771,54.53288 229.147791,54.858723 228.277344,55.0410156 C227.958332,55.104818 227.586916,55.1367188 227.163086,55.1367188 C226.739256,55.1367188 226.308596,55.0831711 225.871094,54.9760742 C225.433592,54.8689773 225.027997,54.714031 224.654297,54.5112305 C224.280597,54.30843 223.939943,54.063478 223.632324,53.7763672 C223.324705,53.4892564 223.063803,53.1656919 222.849609,52.8056641 Z M238.066406,49.5927734 C237.78841,49.4287101 237.504721,49.3466797 237.215332,49.3466797 C236.925943,49.3466797 236.686687,49.4195956 236.497559,49.5654297 C236.30843,49.7112638 236.14323,49.8958322 236.001953,50.1191406 C235.723957,50.5475282 235.53711,51.0488253 235.441406,51.6230469 L235.441406,55 L234.142578,55 L234.142578,48.1640625 L235.21582,48.1640625 L235.43457,49.4150391 C235.785484,48.7724577 236.234372,48.3463552 236.78125,48.1367188 C236.977215,48.0638017 237.156086,48.0273438 237.317871,48.0273438 C237.479656,48.0273438 237.599283,48.0307617 237.676758,48.0375977 C237.754232,48.0444336 237.829427,48.0546874 237.902344,48.0683594 C238.048178,48.1048179 238.200846,48.1595048 238.360352,48.2324219 L238.066406,49.5927734 Z M239.344727,51.6435547 C239.344727,51.1240208 239.447265,50.6432314 239.652344,50.2011719 C239.857423,49.7591124 240.135415,49.3763037 240.486328,49.0527344 C241.22917,48.3691372 242.122391,48.0273438 243.166016,48.0273438 C244.218755,48.0273438 245.096025,48.3531868 245.797852,49.0048828 C246.508793,49.6656934 246.864258,50.5156198 246.864258,51.5546875 C246.864258,52.5709686 246.483728,53.4254523 245.722656,54.1181641 C244.984371,54.7972039 244.091151,55.1367188 243.042969,55.1367188 C241.976557,55.1367188 241.097009,54.8131543 240.404297,54.1660156 C239.697913,53.5097623 239.344727,52.6689504 239.344727,51.6435547 Z M240.643555,51.5683594 C240.643555,51.9238299 240.707356,52.2530909 240.834961,52.5561523 C240.962566,52.8592138 241.13802,53.1223947 241.361328,53.3457031 C241.835289,53.8105492 242.436845,54.0429688 243.166016,54.0429688 C243.845055,54.0429688 244.414711,53.8105492 244.875,53.3457031 C245.335289,52.8899717 245.56543,52.3180373 245.56543,51.6298828 C245.56543,50.9098271 245.326174,50.3105493 244.847656,49.8320312 C244.373696,49.3580705 243.772139,49.1210938 243.042969,49.1210938 C242.363929,49.1210938 241.794273,49.3557919 241.333984,49.8251953 C240.873696,50.2900414 240.643555,50.8710903 240.643555,51.5683594 Z M247.9375,48.1640625 L249.229492,48.1640625 L250.15918,51.1240234 C250.222982,51.319988 250.289062,51.5455716 250.357422,51.8007812 L250.74707,53.3388672 L250.822266,53.3388672 L251.211914,51.8691406 C251.280274,51.6184883 251.346354,51.390626 251.410156,51.1855469 L252.380859,48.1640625 L253.672852,48.1640625 L254.616211,51.1240234 C254.689128,51.3518892 254.762044,51.5934232 254.834961,51.8486328 C255.003582,52.4593129 255.135742,52.9560528 255.231445,53.3388672 L255.306641,53.3388672 L255.504883,52.6005859 C255.641602,52.0901667 255.787434,51.60482 255.942383,51.1445312 L256.926758,48.1640625 L258.116211,48.1640625 L255.860352,55 L254.670898,55 L252.989258,49.9824219 L251.382812,55 L250.193359,55 L247.9375,48.1640625 Z" id="Learn·Create·Share·Grow" fill="#3B8C42"></path>
            </g>
        </g>
    </g>
</svg>